<svg width="202" height="44" viewBox="0 0 202 44" fill="none" xmlns="http://www.w3.org/2000/svg">
<path d="M6.88845 38.1018C10.2035 41.2446 14.4658 43.3973 19.2016 44L12.7436 19.2877L6.88845 38.1018Z" fill="#EA5B0C"/>
<path d="M24.8845 44C29.5773 43.4403 33.7965 41.3738 37.1115 38.317L31.2994 19.5029L24.8845 44Z" fill="#EA5B0C"/>
<path d="M44.1722 22.0861C44.1722 15.7143 41.6752 10.6771 37.3699 6.63014L43.4834 25.9609C43.5856 25.4882 43.6878 25.1065 43.781 24.7584C44.0019 23.9334 44.1722 23.2972 44.1722 22.0861Z" fill="#EA5B0C"/>
<path d="M22.0861 0C19.8043 0 17.6086 0.344423 15.5421 0.990215L22.0431 18.3405L28.501 0.947163C26.4775 0.344423 24.3249 0 22.0861 0Z" fill="#EA5B0C"/>
<path d="M6.41487 6.50098C2.45401 10.5049 0 16.0157 0 22.0861C0 23.5069 0.129158 24.8845 0.387476 26.2192L6.41487 6.50098Z" fill="#EA5B0C"/>
<path d="M170.748 7.10373L179.875 21.0959L169.8 36.4658H179.875L185.73 27.0372L191.671 36.4658H201.961L191.671 21.2681L200.885 7.36204H190.982L185.988 15.7573L180.607 7.10373H170.748Z" fill="#EA5B0C"/>
<path fill-rule="evenodd" clip-rule="evenodd" d="M155.249 27.2955C155.249 27.2955 154 25.6165 152.838 24.6262C151.675 23.636 150.728 23.4638 150.728 23.4638C150.728 23.4638 157.746 21.4403 157.746 15.7574C157.746 10.0744 154.129 7.319 149.307 7.319H103.542L106.297 14.5088H112.842V36.1644H121.969V14.5519H131.311V36.5088H140.266V24.6262C140.266 24.6262 142.849 23.8082 144.098 25.8748C145.346 27.8983 149.953 36.4658 149.953 36.4658H160.243L155.249 27.2955ZM140.18 19.1585V13.045C140.18 13.045 148.791 12.0118 148.791 15.8004C148.748 20.5793 140.18 19.1585 140.18 19.1585Z" fill="#EA5B0C"/>
<path fill-rule="evenodd" clip-rule="evenodd" d="M92.0039 7.36202H102.207L112.841 36.2074H103.714L102.207 31.5147H92.1761L90.4109 36.5088H81.456L92.0039 7.36202ZM96.9119 14.6379L93.8121 25.0998H100.27L96.9119 14.6379Z" fill="#EA5B0C"/>
<path d="M50.4579 7.53423V36.3366L58.0352 36.3796V14.8102L63.4599 36.4657H69.7887L75.5147 14.4227V36.4657H80.1214L82.7045 28.9745V7.53423H71.1664L66.6028 25.1428L61.9961 7.53423H50.4579Z" fill="#EA5B0C"/>
<path d="M169.155 7.36202H160.286V36.4657H169.155V7.36202Z" fill="#EA5B0C"/>
</svg>
