<svg width="250" height="48" viewBox="0 0 250 48" fill="none" xmlns="http://www.w3.org/2000/svg">
<path d="M229.604 17.2619L227.615 21.1122V23.3582H226.909V21.1122L224.92 17.2619H225.754L227.102 20.0213C227.102 20.0855 227.166 20.1496 227.23 20.4063C227.23 20.278 227.294 20.2138 227.423 20.0213L228.834 17.2619H229.604ZM233.711 22.7165H231.209V20.5988H233.391V19.9571H231.209V17.9036H233.583V17.2619H230.503V23.3582H233.776V22.7165H233.711ZM239.679 23.3582H238.909L238.268 21.6256H235.701L235.059 23.3582H234.225L236.599 17.2619H237.369L239.679 23.3582ZM238.011 20.9839L237.048 18.3528C237.048 18.2887 236.984 18.1603 236.984 17.9678C236.984 18.1603 236.92 18.2887 236.856 18.3528L235.893 20.9839H238.011ZM245.005 23.3582H244.171L243.145 21.6256C243.08 21.4972 242.952 21.3047 242.888 21.2405C242.824 21.1122 242.695 21.048 242.631 20.9839C242.567 20.9197 242.439 20.8555 242.31 20.8555C242.182 20.7913 242.054 20.7913 241.925 20.7913H241.348V23.4224H240.642V17.3261H242.439C242.695 17.3261 242.952 17.3903 243.209 17.4544C243.465 17.5186 243.658 17.647 243.786 17.7753C243.979 17.9036 244.107 18.0962 244.171 18.2887C244.235 18.4812 244.3 18.7379 244.3 18.9945C244.3 19.1871 244.235 19.3796 244.235 19.5721C244.171 19.7646 244.107 19.8929 243.979 20.0213C243.85 20.1496 243.722 20.278 243.53 20.4063C243.337 20.5347 243.145 20.5988 242.952 20.663C243.08 20.7272 243.145 20.7913 243.209 20.7913C243.273 20.8555 243.337 20.9197 243.401 20.9839C243.465 21.048 243.53 21.1764 243.594 21.2405C243.658 21.3689 243.722 21.433 243.786 21.5614L245.005 23.3582ZM243.209 19.8288C243.337 19.7004 243.401 19.5721 243.465 19.4437C243.53 19.3154 243.53 19.1229 243.53 18.9304C243.53 18.6095 243.401 18.3528 243.209 18.1603C243.016 17.9678 242.695 17.9036 242.31 17.9036H241.348V20.1496H242.31C242.503 20.1496 242.631 20.1496 242.824 20.0855C242.952 19.9571 243.08 19.8929 243.209 19.8288ZM245.711 23.0373C246.032 23.2298 246.674 23.4224 247.251 23.4224C248.663 23.4224 249.369 22.6523 249.369 21.6897C249.369 20.7913 248.856 20.3421 247.829 19.9571C246.995 19.6363 246.61 19.3796 246.61 18.802C246.61 18.417 246.931 17.9036 247.765 17.9036C248.278 17.9036 248.727 18.0961 248.92 18.1603L249.112 17.5186C248.856 17.3903 248.407 17.1978 247.765 17.1978C246.61 17.1978 245.84 17.9036 245.84 18.802C245.84 19.6363 246.417 20.1496 247.444 20.4705C248.278 20.7913 248.599 21.1122 248.599 21.6897C248.599 22.2673 248.15 22.7165 247.38 22.7165C246.866 22.7165 246.353 22.524 245.968 22.3314L245.711 23.0373Z" fill="url(#paint0_linear_5_1383)"/>
<path d="M46.3316 41.0053V14.5027H56.9198L61.1551 30.6738L65.3904 14.5027H75.9786V34.2032L73.5401 41.0695H69.3048V20.8556L64.107 41.0695H58.2674L53.3262 21.1765V41.0053H46.3316ZM103.636 40.8128H95.2299L93.8182 36.5134H84.6417L83.0374 41.1337H74.8235L84.5134 14.3743H93.8824L103.636 40.8128ZM92.0856 30.6096L89.0053 20.984L86.1818 30.6096H92.0856ZM147.144 41.0695H137.711C137.711 41.0695 133.476 33.2406 132.321 31.3155C131.166 29.4545 128.791 30.1604 128.791 30.1604V41.0695H120.578V20.9198H112.043V40.8128H103.636V20.9198H97.6043L95.1016 14.3102C95.1016 14.3102 132.706 14.3102 137.134 14.3102C141.561 14.3102 144.898 16.8128 144.898 22.0749C144.898 27.2727 138.481 29.1337 138.481 29.1337C138.481 29.1337 139.38 29.3262 140.406 30.1604C141.433 31.0588 142.588 32.5989 142.588 32.5989L147.144 41.0695ZM136.62 22.0749C136.62 18.6096 128.727 19.5722 128.727 19.5722V25.2192C128.727 25.1551 136.62 26.5027 136.62 22.0749ZM147.209 14.3102V41.0695H155.358V14.3102H147.209ZM156.834 14.1176L165.241 26.9519L155.936 41.0695H165.241L170.631 32.4064L176.086 41.0695H185.455L176.021 27.0802L184.492 14.3102H175.38L170.824 22.0749L165.818 14.1176H156.834ZM11.6791 25.3476L6.28877 42.6096C9.30481 45.4973 13.2193 47.4225 17.5829 48L11.6791 25.3476ZM28.6845 25.5401L22.8449 48C27.1444 47.4866 31.0588 45.5615 34.0749 42.8021L28.6845 25.5401ZM39.9144 31.4438C40.2353 29.9679 40.5562 29.4545 40.5562 27.9144C40.5562 22.0749 38.246 17.4545 34.2674 13.7326L39.9144 31.4438ZM20.2781 24.4492L26.1818 8.47059C24.3209 7.89305 22.3316 7.63636 20.2781 7.63636C18.1604 7.63636 16.1711 7.95722 14.246 8.53476L20.2781 24.4492ZM0.320856 31.6364L5.90374 13.5401C2.24599 17.262 0 22.2674 0 27.9144C0 29.1979 0.128342 30.4171 0.320856 31.6364ZM214.46 12.0642H197.775L195.529 28.8128C196.813 28.6203 198.353 28.4278 200.342 28.4278C207.337 28.4278 210.289 31.6364 210.353 36.1283C210.353 40.8128 206.567 43.7005 202.075 43.7005C198.93 43.7005 196.043 42.6096 194.631 41.7754L193.476 45.369C195.144 46.4599 198.353 47.4866 202.139 47.4866C209.711 47.4866 215.102 42.4171 215.102 35.5508C215.102 31.123 212.856 28.1711 210.096 26.5668C207.979 25.2834 205.283 24.7059 202.588 24.7059C201.305 24.7059 200.535 24.8342 199.765 24.8984L201.112 15.9144H214.396V12.0642H214.46ZM229.091 32.3422C223.38 30.4171 219.273 25.0909 219.273 18.738C219.273 10.8449 225.69 4.42781 233.583 4.42781C239.037 4.42781 243.85 7.50802 246.225 12L249.241 8.40642C246.032 3.3369 240.257 0 233.775 0C223.508 0 215.166 8.34225 215.166 18.6096C215.166 26.246 219.786 32.7914 226.332 35.6791L229.091 32.3422ZM226.075 35.2941L225.305 36.1925L225.754 36.6417L230.053 31.6364L229.604 31.1872L227.166 34.0749C226.781 34.4599 226.46 34.9091 226.075 35.2941Z" fill="url(#paint1_linear_5_1383)"/>
<defs>
<linearGradient id="paint0_linear_5_1383" x1="224.926" y1="20.3219" x2="249.337" y2="20.3219" gradientUnits="userSpaceOnUse">
<stop stop-color="#FFD556"/>
<stop offset="1" stop-color="#DEBB4D"/>
</linearGradient>
<linearGradient id="paint1_linear_5_1383" x1="249.386" y1="24.0116" x2="-0.0245895" y2="24.8994" gradientUnits="userSpaceOnUse">
<stop offset="0.0125661" stop-color="white" stop-opacity="0"/>
<stop offset="0.0418873" stop-color="#FFD556"/>
<stop offset="0.1257" stop-color="#F2CA52"/>
<stop offset="0.1969" stop-color="#FFD556"/>
<stop offset="0.388" stop-color="#EA5B0C"/>
</linearGradient>
</defs>
</svg>
