<svg width="13" height="12" viewBox="0 0 13 12" fill="none" xmlns="http://www.w3.org/2000/svg">
<path d="M2.34595 10.3978C3.24654 11.2516 4.40443 11.8363 5.69098 12.0001L3.9366 5.28664L2.34595 10.3978Z" fill="#EA5B0C"/>
<path d="M7.23484 12.0001C8.5097 11.848 9.6559 11.2866 10.5565 10.4562L8.97753 5.34512L7.23484 12.0001Z" fill="#EA5B0C"/>
<path d="M12.4746 6.04687C12.4746 4.31588 11.7962 2.94746 10.6267 1.84804L12.2875 7.09951C12.3152 6.97109 12.343 6.86739 12.3683 6.77283C12.4283 6.54871 12.4746 6.37588 12.4746 6.04687Z" fill="#EA5B0C"/>
<path d="M6.47461 0.046875C5.85473 0.046875 5.25823 0.140442 4.69683 0.315881L6.46291 5.02933L8.2173 0.304185C7.66759 0.140442 7.0828 0.046875 6.47461 0.046875Z" fill="#EA5B0C"/>
<path d="M2.2173 1.81296C1.14128 2.90068 0.474609 4.39775 0.474609 6.04687C0.474609 6.43284 0.509697 6.80711 0.579873 7.16968L2.2173 1.81296Z" fill="#EA5B0C"/>
</svg>
